<svg xmlns="http://www.w3.org/2000/svg" viewBox="0 0 512 512">
	<defs/>
	<path fill="#fff" d="M305 107h-98c-11 0-20-9-20-20V20c0-11 9-20 20-20h98c11 0 20 9 20 20v67c0 11-9 20-20 20zm-78-40h58V40h-58v27zm78 175h-98c-11 0-20-9-20-20v-67c0-11 9-20 20-20h98c11 0 20 9 20 20v67c0 11-9 20-20 20zm-78-40h58v-27h-58v27zm78 175h-98c-11 0-20-9-20-20v-67c0-11 9-20 20-20h98c11 0 20 9 20 20v67c0 11-9 20-20 20zm-78-40h58v-27h-58v27zm78 175h-98c-11 0-20-9-20-20v-67c0-11 9-20 20-20h98c11 0 20 9 20 20v67c0 11-9 20-20 20zm-78-40h58v-27h-58v27zm-109-95H20c-11 0-20-9-20-20v-67c0-11 9-20 20-20h98c11 0 20 9 20 20v67c0 11-9 20-20 20zm-78-40h58v-27H40v27zm78 175H20c-11 0-20-9-20-20v-67c0-11 9-20 20-20h98c11 0 20 9 20 20v67c0 11-9 20-20 20zm-78-40h58v-27H40v27zm452-230h-98c-11 0-20-9-20-20v-67c0-11 9-20 20-20h98c11 0 20 9 20 20v67c0 11-9 20-20 20zm-78-40h58v-27h-58v27zm78 175h-98c-11 0-20-9-20-20v-67c0-11 9-20 20-20h98c11 0 20 9 20 20v67c0 11-9 20-20 20zm-78-40h58v-27h-58v27zm78 175h-98c-11 0-20-9-20-20v-67c0-11 9-20 20-20h98c11 0 20 9 20 20v67c0 11-9 20-20 20zm-78-40h58v-27h-58v27z"/>
</svg>